HIERARCHY
ROOT Hips
{
	OFFSET 0.000000 0.000000 0.000000 
	CHANNELS 6 Xposition Yposition Zposition Yrotation Zrotation Xrotation 
	JOINT Lumbar
	{
		OFFSET 0.000000 0.000000 0.000000 
		CHANNELS 3 Zrotation Xrotation Yrotation
		JOINT Neck
		{
			OFFSET 0.000000 0.445665 0.000000 
			CHANNELS 3 Zrotation Xrotation Yrotation
			End Site
			{
				OFFSET 0.000000 0.227535 0.000000 
			}
		}
		JOINT RightShoulder
		{
			OFFSET 0.019635 0.377685 0.194865 
			CHANNELS 3 Zrotation Xrotation Yrotation
			JOINT RightElbow
			{
				OFFSET 0.000000 -0.243375 0.000000 
				CHANNELS 2 Zrotation Yrotation
				JOINT RightWrist
				{
					OFFSET 0.000000 -0.264825 0.000000 
					CHANNELS 2 Zrotation Xrotation
					End Site
					{
						OFFSET 0.006600 -0.176220 0.000990 
					}
				}
			}
		}
		JOINT LeftShoulder
		{
			OFFSET 0.019635 0.377685 -0.194865 
			CHANNELS 3 Zrotation Xrotation Yrotation
			JOINT LeftElbow
			{
				OFFSET 0.000000 -0.243375 0.000000 
				CHANNELS 2 Zrotation Yrotation
				JOINT LeftWrist
				{
					OFFSET 0.000000 -0.264825 0.000000 
					CHANNELS 2 Zrotation Xrotation
					End Site
					{
						OFFSET 0.006600 -0.176220 -0.000990 
					}
				}
			}
		}
	}
	JOINT RightHip
	{
		OFFSET 0.052140 -0.069960 0.075570 
		CHANNELS 3 Zrotation Xrotation Yrotation
		JOINT RightKnee
		{
			OFFSET 0.000000 -0.402270 0.000000 
			CHANNELS 1 Zrotation
			JOINT RightAnkle
			{
				OFFSET 0.000000 -0.404085 0.000000 
				CHANNELS 3 Zrotation Xrotation Yrotation
				End Site
				{
					OFFSET 0.204105 -0.089430 0.008415 
				}
			}
		}
	}
	JOINT LeftHip
	{
		OFFSET 0.052140 -0.069960 -0.075570 
		CHANNELS 3 Zrotation Xrotation Yrotation
		JOINT LeftKnee
		{
			OFFSET 0.000000 -0.402270 0.000000 
			CHANNELS 1 Zrotation
			JOINT LeftAnkle
			{
				OFFSET 0.000000 -0.404085 0.000000 
				CHANNELS 3 Zrotation Xrotation Yrotation
				End Site
				{
					OFFSET 0.204105 -0.089430 -0.008415 
				}
			}
		}
	}
}
MOTION
Frames: 11
Frame Time: 0.02
-0.00042 -1e-05 -3e-05 -180.32086 -35.46042 -3.13097 43.70975 2.76722 -2.2556 -15.15881 -0.47235 -0.45612 88.89622 -93.10683 -89.99945 5.32875 67.99056 -13.35573 0.48373 67.12551 100.79034 -64.1675 6.95296 -99.91551 11.53584 -0.84761 40.92613 -4.37271 -2.65474 -22.48775 -7.14424 -3.73815 -2.59193 44.62824 8.43007 -1.0085 -27.82364 -6.67268 3.27815 2.34611
-0.00049 -2e-05 -3e-05 -180.32397 -35.44958 -3.13238 43.70229 2.76888 -2.25144 -15.15918 -0.47502 -0.45623 89.10827 -93.09236 -89.99947 5.32875 68.02278 -13.34131 0.45135 67.24769 100.77689 -64.16787 6.94739 -99.93832 11.54718 -0.85124 40.90741 -4.38673 -2.73822 -22.48739 -7.13852 -3.72399 -2.58564 44.60988 8.45105 -0.93172 -27.82461 -6.66956 3.26765 2.33966
-0.00056 -3e-05 -3e-05 -180.32706 -35.43879 -3.13377 43.69485 2.77053 -2.24728 -15.15954 -0.47769 -0.45635 89.31978 -93.07796 -89.99949 5.32875 68.05485 -13.32693 0.41903 67.36962 100.76347 -64.16823 6.94184 -99.96107 11.55847 -0.85487 40.88875 -4.40071 -2.82144 -22.48704 -7.13283 -3.70987 -2.57936 44.59156 8.47198 -0.85511 -27.82558 -6.66645 3.25718 2.33323
-0.00063 -3e-05 -3e-05 -180.33015 -35.42799 -3.13517 43.68742 2.77219 -2.24313 -15.1599 -0.48036 -0.45646 89.53119 -93.06353 -89.99951 5.32875 68.08696 -13.31255 0.38674 67.49144 100.75006 -64.1686 6.93629 -99.98381 11.56977 -0.85849 40.87009 -4.41468 -2.90466 -22.48668 -7.12713 -3.69576 -2.57309 44.57326 8.49291 -0.77855 -27.82655 -6.66334 3.24671 2.32681
-0.0007 -4e-05 -3e-05 -180.33327 -35.41715 -3.13658 43.67997 2.77386 -2.23898 -15.16027 -0.48303 -0.45658 89.7431 -93.04903 -89.99953 5.32875 68.11923 -13.29814 0.3544 67.61348 100.73662 -64.16897 6.93072 -100.0066 11.58111 -0.8621 40.85138 -4.42869 -2.98813 -22.48632 -7.12142 -3.68161 -2.5668 44.5549 8.51388 -0.70185 -27.82753 -6.66023 3.23621 2.32036
-0.00077 -5e-05 -3e-05 -180.33631 -35.40643 -3.13795 43.67257 2.77548 -2.23481 -15.16063 -0.48568 -0.45669 89.95374 -93.03483 -89.99955 5.32875 68.15092 -13.2838 0.32213 67.73518 100.72323 -64.16933 6.92519 -100.02926 11.59232 -0.86578 40.83281 -4.44262 -3.07082 -22.486 -7.11575 -3.66755 -2.56056 44.53668 8.53471 -0.62545 -27.82849 -6.65713 3.22579 2.31397
-0.00084 -6e-05 -3e-05 -180.33949 -35.39549 -3.1394 43.66506 2.77718 -2.23069 -15.16099 -0.48837 -0.4568 90.16669 -93.02004 -89.99957 5.32875 68.18372 -13.26933 0.28975 67.85739 100.70976 -64.16971 6.91959 -100.05216 11.60378 -0.86931 40.81398 -4.45668 -3.155 -22.4856 -7.11002 -3.65333 -2.55423 44.51821 8.55581 -0.54852 -27.82947 -6.654 3.21522 2.30748
-0.00091 -7e-05 -4e-05 -180.34255 -35.38476 -3.14078 43.65767 2.77882 -2.22652 -15.16136 -0.49102 -0.45692 90.37756 -93.00579 -89.99959 5.32875 68.21551 -13.25499 0.25747 67.97917 100.69637 -64.17007 6.91405 -100.07483 11.61502 -0.87299 40.79539 -4.47062 -3.2378 -22.48526 -7.10433 -3.63926 -2.54798 44.49997 8.57666 -0.47211 -27.83044 -6.6509 3.20479 2.30108
-0.00098 -7e-05 -4e-05 -180.34544 -35.37425 -3.14205 43.65039 2.78036 -2.22227 -15.16171 -0.49365 -0.45703 90.58579 -92.99223 -89.99962 5.32875 68.24601 -13.2408 0.22532 68.10035 100.68303 -64.17042 6.90863 -100.09726 11.62596 -0.87683 40.7771 -4.48444 -3.31897 -22.48503 -7.09871 -3.62535 -2.54184 44.482 8.59723 -0.39613 -27.83139 -6.64784 3.19454 2.2948
-0.00104 -8e-05 -4e-05 -180.34924 -35.36237 -3.14389 43.64236 2.78241 -2.21843 -15.16209 -0.49649 -0.45715 90.8089 -92.97478 -89.99963 5.32875 68.2838 -13.2257 0.19242 68.22476 100.66929 -64.17085 6.90264 -100.1212 11.63853 -0.87967 40.75709 -4.49904 -3.40967 -22.48429 -7.09275 -3.61046 -2.53509 44.46245 8.6195 -0.31708 -27.83242 -6.64456 3.18327 2.28785
-0.00112 -9e-05 -3e-05 -180.35116 -35.35343 -3.14456 43.63596 2.7834 -2.21376 -15.16244 -0.49884 -0.45725 91.0008 -92.96549 -89.99967 5.32875 68.30627 -13.21253 0.16113 68.3425 100.65647 -64.1711 6.89777 -100.14188 11.6477 -0.88465 40.74072 -4.51193 -3.48019 -22.48456 -7.0875 -3.59767 -2.52962 44.44626 8.63812 -0.24488 -27.8333 -6.64174 3.17415 2.28231
